<svg width="512" height="512" viewBox="0 0 512 512" fill="none" xmlns="http://www.w3.org/2000/svg">
  <defs>
    <linearGradient id="bgLarge3" x1="66" y1="30" x2="446" y2="480" gradientUnits="userSpaceOnUse">
      <stop stop-color="#FDFEFF"/>
      <stop offset="0.56" stop-color="#EFF6FF"/>
      <stop offset="1" stop-color="#E4EEFF"/>
    </linearGradient>
    <linearGradient id="ringLarge3" x1="132" y1="92" x2="404" y2="416" gradientUnits="userSpaceOnUse">
      <stop stop-color="#7BEAFF"/>
      <stop offset="0.5" stop-color="#6D8CFF"/>
      <stop offset="1" stop-color="#F472B6"/>
    </linearGradient>
    <linearGradient id="coreLarge3" x1="180" y1="146" x2="340" y2="364" gradientUnits="userSpaceOnUse">
      <stop stop-color="#86EEFF"/>
      <stop offset="0.52" stop-color="#6F8EFF"/>
      <stop offset="1" stop-color="#F472B6"/>
    </linearGradient>
  </defs>
  <rect x="18" y="18" width="476" height="476" rx="128" fill="url(#bgLarge3)"/>
  <circle cx="256" cy="256" r="180" stroke="url(#ringLarge3)" stroke-width="30" opacity="0.99"/>
  <circle cx="256" cy="256" r="126" stroke="#BED1EA" stroke-width="14" opacity="0.56"/>
  <circle cx="256" cy="256" r="82" fill="url(#coreLarge3)"/>
  <circle cx="256" cy="256" r="38" fill="#FCFDFF"/>
  <path d="M256 76C310 76 354 98 390 134" stroke="#FFFFFF" stroke-width="12" stroke-linecap="round" opacity="0.8"/>
  <path d="M124 384C92 350 76 306 76 256" stroke="#7DEBFF" stroke-width="12" stroke-linecap="round" opacity="0.52"/>
  <circle cx="366" cy="150" r="21" fill="#F472B6"/>
  <circle cx="150" cy="292" r="14" fill="#7DEBFF" opacity="0.95"/>
  <circle cx="344" cy="366" r="13" fill="#6D8CFF" opacity="0.98"/>
  <path d="M366 150C336 180 316 210 300 248" stroke="#F472B6" stroke-width="11" stroke-linecap="round" opacity="0.34"/>
</svg>
